<svg xmlns="http://www.w3.org/2000/svg" viewBox="0 0 665.7 730.8"><g id="Ebene_2" data-name="Ebene 2"><g id="App_Icon" data-name="App Icon"><path d="M0,698.31V582.79H77.84v20.14H24.42v27.52H65.26v20.14H24.42v27.58H78.07v20.14Z"/><path d="M126.49,631v19.06H86.39V631Z"/><path d="M209.14,698.31h27l-24.52-44.89c.36-.15.73-.3,1.08-.46A32.15,32.15,0,0,0,227,640.3q5-8.26,5-19.77a39.34,39.34,0,0,0-4.88-19.94A32.81,32.81,0,0,0,213,587.45q-9.27-4.66-22.36-4.66H145V698.31h24.43V657.36h17.82Zm-39.7-95.55h16.47a29,29,0,0,1,11.7,2.06,14.49,14.49,0,0,1,6.94,6,19.1,19.1,0,0,1,2.28,9.7,18.37,18.37,0,0,1-2.28,9.53,13.94,13.94,0,0,1-6.91,5.75A30.51,30.51,0,0,1,186,637.73H169.44Z"/><path d="M325,661.14v-6.6a54.83,54.83,0,0,0-3.1-19.32,37.24,37.24,0,0,0-8.66-13.73,36,36,0,0,0-13-8.21,46,46,0,0,0-16-2.74q-12.75,0-22.2,5.64a38.22,38.22,0,0,0-14.63,15.74q-5.2,10.1-5.19,23.47,0,13.7,5.19,23.71a36.74,36.74,0,0,0,14.8,15.46q9.61,5.45,23,5.44a50.44,50.44,0,0,0,18.92-3.3,34.73,34.73,0,0,0,13.43-9.25,30.36,30.36,0,0,0,6.91-14L302.26,672a14.69,14.69,0,0,1-3.61,5.52,15.13,15.13,0,0,1-5.7,3.39,22.72,22.72,0,0,1-7.33,1.13,20.53,20.53,0,0,1-10.43-2.54,17.13,17.13,0,0,1-6.8-7.22A24.08,24.08,0,0,1,266,661.2v-.06ZM275,631a18.51,18.51,0,0,1,9.67-2.51,18.16,18.16,0,0,1,9.23,2.29,16.41,16.41,0,0,1,6.23,6.28,18.47,18.47,0,0,1,2.25,9.2H266a19,19,0,0,1,2.4-8.55A18,18,0,0,1,275,631Z"/><path d="M338.63,698.31V684l42.42-52.51v-.62H340.1V611.67H410V627.3l-39.83,51.21v.62h41.29v19.18Z"/><path d="M505.08,661.14v-6.6a55.06,55.06,0,0,0-3.1-19.32,37.37,37.37,0,0,0-8.66-13.73,36,36,0,0,0-13-8.21,45.9,45.9,0,0,0-16-2.74q-12.75,0-22.19,5.64a38.31,38.31,0,0,0-14.64,15.74q-5.19,10.1-5.19,23.47,0,13.7,5.19,23.71a36.77,36.77,0,0,0,14.81,15.46q9.62,5.45,23,5.44a50.49,50.49,0,0,0,18.93-3.3,34.69,34.69,0,0,0,13.42-9.25,30.26,30.26,0,0,0,6.91-14L482.35,672a14.69,14.69,0,0,1-3.61,5.52,15.13,15.13,0,0,1-5.7,3.39,22.77,22.77,0,0,1-7.33,1.13,20.54,20.54,0,0,1-10.44-2.54,17.19,17.19,0,0,1-6.8-7.22,24.21,24.21,0,0,1-2.39-11.11v-.06Zm-50-30.15a18.57,18.57,0,0,1,9.68-2.51,18.12,18.12,0,0,1,9.22,2.29,16.34,16.34,0,0,1,6.23,6.28,18.37,18.37,0,0,1,2.26,9.2H446.11a19,19,0,0,1,2.39-8.55A18,18,0,0,1,455.07,631Z"/><path d="M519.17,730.8V611.67h23.69v14.55h1.07a31.72,31.72,0,0,1,4.6-7.13,24,24,0,0,1,7.9-6.09,26.83,26.83,0,0,1,12.15-2.46,32.72,32.72,0,0,1,17.49,4.94q8,4.93,12.8,14.83t4.8,24.79q0,14.5-4.66,24.46a34.81,34.81,0,0,1-12.63,15.06,32.46,32.46,0,0,1-17.86,5.1,27.58,27.58,0,0,1-11.87-2.31,24.36,24.36,0,0,1-8-5.84,28.92,28.92,0,0,1-4.74-7.14h-.73V730.8ZM542.69,655a38.52,38.52,0,0,0,2.14,13.48,19.77,19.77,0,0,0,6.21,8.94,16.85,16.85,0,0,0,19.8,0,20,20,0,0,0,6.17-9,42.88,42.88,0,0,0,0-26.54,19.6,19.6,0,0,0-6.15-8.91,15.58,15.58,0,0,0-10-3.22,15.75,15.75,0,0,0-9.9,3.11,19.37,19.37,0,0,0-6.18,8.8A38,38,0,0,0,542.69,655Z"/><path d="M661.92,679.36l-2.59.48a19.43,19.43,0,0,1-3.39.31,11.45,11.45,0,0,1-4.26-.74,5.48,5.48,0,0,1-2.84-2.56,10.72,10.72,0,0,1-1-5.16v-42h16.3V611.67h-16.3V590.91h-24v20.76H612v18.05h11.84v45.13q-.06,8.5,3.56,14.1a21.17,21.17,0,0,0,10.12,8.23,36.35,36.35,0,0,0,15.2,2.32,42.72,42.72,0,0,0,8-.94c2.18-.5,3.88-.94,5.08-1.32Z"/><path d="M523.41,253.89,545.74,231A135.32,135.32,0,0,0,354.33,39.63l-21.39,22L309.51,40A134.82,134.82,0,1,0,118.85,230.65L141.5,253.3l-22.65,22.53c-52.57,52.56-52.57,138.1,0,190.66a134.81,134.81,0,0,0,190.7,0L332,443.75l22.65,22.74a134.81,134.81,0,0,0,190.66,0c52.57-52.56,52.57-138.1,0-190.66Zm-388.3-39.5A111.82,111.82,0,0,1,293.25,56.25L315.5,78.52,157.75,237l-.38-.38ZM293.25,450.23A111.82,111.82,0,0,1,135.09,292.11l22.59-22.46L315.74,427.53Zm38.61-39.09-158-158L348,78.5l22.59-22.6A112.32,112.32,0,1,1,529.41,214.78l-26.74,27.45Zm197.23,39.09a111.83,111.83,0,0,1-158.12,0l-22.52-22.61,77.19-75.86,81.57-81.57,21.88,21.88a111.83,111.83,0,0,1,0,158.14Z"/></g></g></svg>